<svg width="18" height="18" viewBox="0 0 18 18" fill="none" xmlns="http://www.w3.org/2000/svg">
<circle cx="9" cy="9" r="8.5" stroke="#A5A5A5"/>
<path d="M8.42 11.096C8.42 10.744 8.496 10.416 8.648 10.112C8.8 9.808 8.984 9.548 9.2 9.332C9.416 9.116 9.632 8.912 9.848 8.72C10.064 8.52 10.248 8.304 10.4 8.072C10.552 7.832 10.628 7.58 10.628 7.316C10.628 6.916 10.488 6.612 10.208 6.404C9.936 6.188 9.58 6.08 9.14 6.08C8.26 6.08 7.696 6.468 7.448 7.244L6.5 6.716C6.7 6.156 7.04 5.732 7.52 5.444C8 5.148 8.544 5 9.152 5C9.864 5 10.472 5.2 10.976 5.6C11.488 6 11.744 6.556 11.744 7.268C11.744 7.604 11.668 7.92 11.516 8.216C11.364 8.512 11.18 8.768 10.964 8.984C10.748 9.2 10.532 9.412 10.316 9.62C10.1 9.82 9.916 10.048 9.764 10.304C9.612 10.552 9.536 10.816 9.536 11.096H8.42ZM8.972 13.688C8.756 13.688 8.572 13.612 8.42 13.46C8.268 13.308 8.192 13.124 8.192 12.908C8.192 12.692 8.268 12.508 8.42 12.356C8.572 12.204 8.756 12.128 8.972 12.128C9.196 12.128 9.38 12.204 9.524 12.356C9.676 12.508 9.752 12.692 9.752 12.908C9.752 13.124 9.676 13.308 9.524 13.46C9.38 13.612 9.196 13.688 8.972 13.688Z" fill="#A5A5A5"/>
</svg>
